<svg preserveAspectRatio="xMidYMid meet" data-bbox="0 -0.003 866.541 98.576" width="866.56" height="98.573" viewBox="0 -0.003 866.541 98.576" xmlns="http://www.w3.org/2000/svg" data-type="color" role="presentation" aria-hidden="true" aria-label="" wixshapeid="ab7d59_603e656051e24382905d91163e9fdf7b.svg">
    <defs>
        <style>
            #comp-lzqwm5h7 svg [data-color="1"] {fill: #1A181A;}
        </style>
    </defs>
    <g>
        <path d="M568.771 1.763V66.8L521.386 1.763h-15.21v95.044h16.839V32.041l47.25 64.766h15.207V1.763Zm-109.388 2.57-9.114 14.115c-3.733-1.405-7.892-2.158-12.387-2.158-19.007 0-32.043 13.444-32.043 32.996 0 9.86 3.316 18.166 9.043 23.977l-9.297 14.4c-10.723-8.736-17.26-22.185-17.26-38.377 0-29.057 21.043-49.289 49.557-49.289 7.823 0 15.083 1.527 21.501 4.336m-21.5 94.24c28.513 0 49.56-20.232 49.56-49.287 0-17.208-7.384-31.32-19.327-39.97l-9.166 14.199c6.906 5.831 10.977 14.846 10.977 25.771 0 19.551-13.034 32.994-32.045 32.994-5.493 0-10.486-1.124-14.81-3.193l-9.061 14.035c6.98 3.522 15.069 5.451 23.871 5.451m-68.295-96.81h-16.973v95.044h16.973zm-74.542 96.81c22.811 0 37.881-11.542 37.881-29.194 0-21.588-23.352-25.796-35.98-27.969-16.293-2.715-21.453-5.702-21.453-12.492 0-8.01 6.653-13.17 20.368-13.17 9.231 0 18.056 2.444 26.747 7.74l8.012-14.122c-9.776-5.974-21.046-9.369-33.946-9.369-17.786 0-39.24 6.517-39.24 30.686 0 14.8 8.147 21.181 36.66 27.02 10.998 2.037 20.638 3.395 20.638 12.492 0 8.282-7.874 12.627-19.28 12.627-11.27 0-24.439-4.48-32.723-10.725l-8.146 14.256c6.654 4.888 23.082 12.22 40.462 12.22m-92.057 0c22.81 0 37.882-11.542 37.882-29.194 0-21.588-23.354-25.796-35.982-27.969-16.293-2.715-21.451-5.702-21.451-12.492 0-8.01 6.652-13.17 20.366-13.17 9.233 0 18.057 2.444 26.747 7.74l8.012-14.122c-9.776-5.974-21.046-9.369-33.944-9.369-17.788 0-39.24 6.517-39.24 30.686 0 14.8 8.147 21.181 36.66 27.02 10.998 2.037 20.638 3.395 20.638 12.492 0 8.282-7.875 12.627-19.28 12.627-11.27 0-24.44-4.48-32.723-10.725l-8.146 14.256c6.653 4.888 23.08 12.22 40.461 12.22m-58.656-96.81H127.36v95.044h16.972zm-41.14 0H78.343L51.597 68.565 24.847 1.763H0v95.044h16.7V22.944l25.662 63.543h18.466l25.663-63.543v73.863h16.7z" fill="#1A181A" fill-rule="evenodd" data-color="1"></path>
        <path d="M664.785 88.388v8.283h-61.236v-4.617q0-6.923 2.58-12.627a42.3 42.3 0 0 1 6.654-10.388 63.5 63.5 0 0 1 8.961-8.484 256 256 0 0 1 9.503-7.062 180 180 0 0 0 7.74-5.566q3.939-2.989 7.06-6.313 3.123-3.328 5.16-6.994t2.037-7.603q0-4.21-1.63-7.739-1.629-3.532-4.412-5.976-2.783-2.442-6.586-3.8-3.8-1.359-8.146-1.358-2.987 0-5.907 1.018a26.5 26.5 0 0 0-5.567 2.715 31 31 0 0 0-4.887 3.87q-2.24 2.174-3.734 4.346l-1.29-.544a113 113 0 0 1-2.783-1.222q-1.494-.678-2.784-1.222l-1.29-.544q2.036-3.529 5.093-6.517a36.6 36.6 0 0 1 6.788-5.227 36.2 36.2 0 0 1 7.875-3.53q4.141-1.29 8.486-1.29 6.109 0 11.609 1.562 5.499 1.56 9.64 5.023 4.14 3.464 6.652 8.826 2.514 5.363 2.514 12.966 0 4.89-2.31 9.302-2.307 4.413-5.906 8.282a69 69 0 0 1-8.01 7.332 172 172 0 0 1-8.759 6.45 257 257 0 0 0-8.35 5.906q-4.14 3.054-7.467 6.518-3.325 3.46-5.43 7.466-2.106 4.006-2.106 8.758z" fill="#1A181A" fill-rule="evenodd" data-color="1"></path>
        <path d="m799.692-.003-18.314 28.059-25.488 38.608h29.338v8.148h-37.89v-9.37L791.025-.002h2.58zm-7.138 52.45V96.67h9.334V27.96l-9.337.169v24.317z" fill="#1A181A" fill-rule="evenodd" data-color="1"></path>
        <path d="M706.469 90.154q6.382-.001 10.521-2.784 4.143-2.784 6.587-8.01 2.443-5.227 3.462-12.832 1.019-7.603 1.019-17.244 0-9.504-1.019-17.175-1.02-7.671-3.462-12.967c-2.442-5.296-3.824-6.247-6.587-8.147q-4.139-2.85-10.521-2.851c-6.382-.001-7.784.951-10.59 2.85q-4.21 2.852-6.654 8.148c-2.444 5.296-2.785 7.853-3.463 12.967q-1.018 7.672-1.018 17.175 0 9.641 1.018 17.244 1.018 7.605 3.463 12.831 2.444 5.228 6.654 8.01 4.208 2.785 10.59 2.785m0-90.157q5.839 0 11.473 2.104 5.635 2.106 9.978 7.604 4.347 5.5 6.994 15.073 2.648 9.571 2.649 24.506t-2.65 24.44q-2.645 9.504-6.993 15.004-4.342 5.499-9.978 7.603-5.635 2.105-11.473 2.106-5.976 0-11.609-2.106-5.635-2.104-10.05-7.603-4.41-5.5-7.058-15.004t-2.648-24.44 2.715-24.506q2.715-9.574 7.061-15.073 4.344-5.498 9.98-7.604a33 33 0 0 1 11.609-2.104" fill="#1A181A" fill-rule="evenodd" data-color="1"></path>
        <path d="m864.36.051-18.33 28.005-25.485 38.608h29.336v8.148h-37.89v-9.37L855.692.053h2.582zm-7.152 52.396V96.67h9.333V27.96l-9.337.169v24.317z" fill="#1A181A" fill-rule="evenodd" data-color="1"></path>
    </g>
</svg>